<?xml version="1.0" encoding="utf-8"?>
<!-- Generator: Adobe Illustrator 16.0.4, SVG Export Plug-In . SVG Version: 6.00 Build 0)  -->
<!DOCTYPE svg PUBLIC "-//W3C//DTD SVG 1.1//EN" "http://www.w3.org/Graphics/SVG/1.1/DTD/svg11.dtd">
<svg version="1.1" xmlns="http://www.w3.org/2000/svg" xmlns:xlink="http://www.w3.org/1999/xlink" x="0px" y="0px"
	 width="203.7412109px" height="203.7412109px" viewBox="48.3710938 171.25 203.7412109 203.7412109"
	 enable-background="new 48.3710938 171.25 203.7412109 203.7412109" xml:space="preserve">
<g id="Слой_3">
	<path fill="#DB0A34" d="M252.1123047,273.1201172c0,56.2617188-45.609375,101.8710938-101.8706055,101.8710938
		c-26.6972656,0-101.8696289,0-101.8696289,0s-0.0009766-72.3066406-0.0009766-101.8710938
		C48.3710938,216.859375,93.9799805,171.25,150.2416992,171.25C206.5029297,171.25,252.1123047,216.859375,252.1123047,273.1201172z
		"/>
</g>
<g id="Слой_1">
	<g>
		<path fill="#FFFFFF" d="M101.0556641,260.2402344v-5.5859375c0-2.6621094-0.7524414-3.2490234-2.1738281-3.2490234
			c-1.4921875,0-2.2368164,0.5869141-2.2368164,3.2490234v6.4824219c0,3.7646484,11.5771484,14.1757812,11.5771484,19.4882812
			v9.2841797c0,6.8642578-4.9389648,8.8476562-9.3994141,8.8476562c-4.4033203,0-9.3544922-1.9804688-9.3544922-8.8476562
			v-2.8388672l7.1762695-4.2617188v6.4394531c0,2.6542969,0.7441406,3.25,2.2368164,3.25
			c1.4213867,0,2.1733398-0.5966797,2.1733398-3.2490234v-5.5371094c0-7.3759766-11.5869141-13.6513672-11.5869141-22.2021484
			v-7.5302734c0-6.8486328,4.9506836-8.8427734,9.3544922-8.8427734c4.4628906,0,9.3994141,1.9970703,9.3994141,8.8427734v1.8935547
			l-7.1665039,4.3671875 M149.2817383,291.6542969h5.8110352l1.9658203,7.0507812H142.09375v-53.5634766h7.1884766v46.5126953
			 M206.8105469,245.1416016v7.0439453h-6.8632812v46.5195312h-7.1777344v-46.5195312h-6.2900391l-0.7392578-7.0439453H206.8105469
			 M178.3671875,245.1416016h-10.7636719l-5.4882812,53.5654297h6.5068359l1.5517578-14.2285156h5.078125l1.3476562,14.2285156
			h7.2519531l-5.4833984-53.5654297H178.3671875z M170.8457031,277.4238281l1.5410156-19.6416016h0.8798828l1.3076172,19.6416016
			H170.8457031 M123.2294922,245.1416016H115.71875v53.5654297h7.1738281v-47.125
			c2.918457,0,4.4033203,0.1435547,4.4033203,5.1533203v12.8076172c0,1.7324219-1.5224609,2.2470703-3.2055664,2.3789062
			l1.6831055,6.34375c5.7519531-0.6054688,8.6992188-3.3066406,8.6992188-10.9169922v-11.671875
			c0-7.2822266-3.3051758-10.5351562-11.2426758-10.5351562 M208.7890625,238.75v-4.9414062h2.2060547
			c0.4423828,0,0.7822266,0.0449219,1.0087891,0.1328125l0.546875,0.4648438
			c0.1347656,0.2255859,0.2128906,0.4707031,0.2128906,0.75c0,0.3486328-0.1152344,0.640625-0.3496094,0.8857422
			c-0.2207031,0.2431641-0.5742188,0.3984375-1.0527344,0.4550781l0.4042969,0.2509766
			c0.1943359,0.1738281,0.3544922,0.3925781,0.5410156,0.6542969l0.8652344,1.3457031h-0.8378906l-0.6523438-1.0273438
			c-0.1748047-0.2988281-0.3378906-0.5185547-0.4648438-0.6796875l-0.3271484-0.3271484l-0.3037109-0.1416016l-0.3535156-0.0166016
			h-0.7695312v2.1923828h-0.6738281V238.75L208.7890625,238.75z M209.4580078,235.984375h1.4052734
			c0.3037109,0,0.5419922-0.0273438,0.7001953-0.0859375l0.3955078-0.296875l0.1308594-0.4462891l-0.2617188-0.5732422
			c-0.1601562-0.1503906-0.4296875-0.2236328-0.8007812-0.2236328h-1.5664062v1.6259766 M206.0537109,236.4160156
			c0,2.5820312,2.1103516,4.6845703,4.7060547,4.6845703c2.5878906,0,4.6953125-2.1064453,4.6953125-4.6845703
			c0-2.5820312-2.109375-4.6953125-4.6953125-4.6953125c-2.5957031,0-4.7050781,2.1132812-4.7050781,4.6953125H206.0537109z
			 M206.6289062,236.4160156c0-2.2773438,1.8603516-4.1162109,4.1308594-4.1162109
			c2.2753906,0,4.1162109,1.8369141,4.1162109,4.1162109c0,2.265625-1.8408203,4.1181641-4.1162109,4.1181641
			c-2.2695312,0-4.1298828-1.8554688-4.1298828-4.1181641"/>
	</g>
</g>
</svg>
