<?xml version="1.0" encoding="utf-8"?>
<!-- Generator: Adobe Illustrator 19.1.0, SVG Export Plug-In . SVG Version: 6.00 Build 0)  -->
<svg version="1.1" id="Слой_1" xmlns="http://www.w3.org/2000/svg" xmlns:xlink="http://www.w3.org/1999/xlink" x="0px" y="0px"
	 viewBox="0 0 100 100" style="enable-background:new 0 0 100 100;" xml:space="preserve">
<style type="text/css">
	.st0{fill:#FFFFFF;}
	.st1{fill:#F15A24;}
	.st2{fill:#87BA25;}
</style>
<g>
	<circle class="st0" cx="50.1" cy="50.5" r="45.5"/>
</g>
<path class="st1" d="M75.5,47.3c-0.4-0.1-0.8-0.2-1.2-0.2c0,0,0,0-0.1,0c-0.3,0-0.6,0-1,0H54V26.8c0-2.7-0.8-4.9-3.5-4.9
	c-2.7,0-3.5,2.2-3.5,4.9c0,0,0,20.2,0,20.2H27.4c0,0,0,0,0,0c-2.7,0-4.9,0.8-4.9,3.5c0,2.7,2.2,3.5,4.9,3.5H47v18.5c0,0,0,0,0,0
	c0,2.7,0.8,4.9,3.5,4.9c2.7,0,3.5-2.2,3.5-4.9V54h19.2c2.7,0,4.9-0.8,4.9-3.5C78.1,48.6,77,47.7,75.5,47.3z M48,26.4
	c0,0.1,0,0.3,0,0.4C48,26.6,48,26.5,48,26.4z"/>
</svg>
