<?xml version="1.0" encoding="utf-8"?>
<!-- Generator: Adobe Illustrator 19.1.0, SVG Export Plug-In . SVG Version: 6.00 Build 0)  -->
<svg version="1.1" id="Слой_1" xmlns="http://www.w3.org/2000/svg" xmlns:xlink="http://www.w3.org/1999/xlink" x="0px" y="0px"
	 viewBox="0 0 100 100" style="enable-background:new 0 0 100 100;" xml:space="preserve">
<style type="text/css">
	.st0{fill:#FFFFFF;}
	.st1{fill:#F15A24;}
	.st2{fill:#87BA25;}
</style>
<g>
	<g>
		<g>
			<circle class="st0" cx="51" cy="50.5" r="45.5"/>
		</g>
	</g>
	<g>
		<g>
			<path class="st2" d="M76,54H39.5c-2,0-3.7-2-3.7-4s1.6-4,3.7-4H76c2,0,3.7,2,3.7,4S78.1,54,76,54z"/>
			<path class="st2" d="M76,67H39.5c-2,0-3.7-2-3.7-4c0-2,1.6-4,3.7-4H76c2,0,3.7,2,3.7,4C79.7,65,78.1,67,76,67z"/>
			<path class="st2" d="M76,42H39.5c-2,0-3.7-2-3.7-4s1.6-4,3.7-4H76c2,0,3.7,2,3.7,4S78.1,42,76,42z"/>
			<circle class="st2" cx="27.2" cy="50.4" r="4.8"/>
			<circle class="st2" cx="27.2" cy="37.9" r="4.8"/>
			<circle class="st2" cx="27.2" cy="63" r="4.8"/>
		</g>
	</g>
</g>
</svg>
