<?xml version="1.0" encoding="utf-8"?>
<!-- Generator: Adobe Illustrator 16.0.4, SVG Export Plug-In . SVG Version: 6.00 Build 0)  -->
<!DOCTYPE svg PUBLIC "-//W3C//DTD SVG 1.1//EN" "http://www.w3.org/Graphics/SVG/1.1/DTD/svg11.dtd">
<svg version="1.1" id="Слой_1" xmlns="http://www.w3.org/2000/svg" xmlns:xlink="http://www.w3.org/1999/xlink" x="0px" y="0px"
	 width="204.228px" height="150px" viewBox="47.885 171.252 204.228 150" enable-background="new 47.885 171.252 204.228 150"
	 xml:space="preserve">
<path fill="#DB0A34" d="M150.006,192.404c-18.183-32.557-107.837-31.363-101.833,37.025c5.206,59.32,101.831,91.822,101.831,91.822
	s96.827-32.483,101.832-91.822C257.725,159.588,168.185,159.85,150.006,192.404L150.006,192.404z"/>
<g>
	<path fill="#FFFFFF" d="M102.056,227.24v-5.586c0-2.662-0.752-3.249-2.174-3.249c-1.492,0-2.237,0.587-2.237,3.249v6.482
		c0,3.765,11.577,14.176,11.577,19.488v9.284c0,6.864-4.939,8.848-9.399,8.848c-4.403,0-9.354-1.98-9.354-8.848v-2.839l7.176-4.262
		v6.439c0,2.654,0.744,3.25,2.237,3.25c1.421,0,2.173-0.597,2.173-3.249v-5.537c0-7.376-11.587-13.651-11.587-22.202v-7.53
		c0-6.849,4.951-8.843,9.354-8.843c4.463,0,9.399,1.997,9.399,8.843v1.894L102.056,227.24 M150.282,258.654h5.811l1.966,7.051
		h-14.965v-53.563h7.188L150.282,258.654 M207.811,212.142v7.044h-6.863v46.52h-7.178v-46.52h-6.29l-0.739-7.044H207.811
		 M179.367,212.142h-10.764l-5.488,53.565h6.507l1.552-14.229h5.078l1.348,14.229h7.252L179.367,212.142L179.367,212.142z
		 M171.846,244.424l1.541-19.642h0.88l1.308,19.642H171.846 M124.229,212.142h-7.511v53.565h7.174v-47.125
		c2.918,0,4.403,0.144,4.403,5.153v12.808c0,1.732-1.522,2.247-3.206,2.379l1.683,6.344c5.752-0.605,8.699-3.307,8.699-10.917
		v-11.672C135.473,215.395,132.167,212.142,124.229,212.142 M209.789,205.75v-4.941h2.206c0.442,0,0.782,0.045,1.009,0.133
		l0.547,0.465c0.135,0.226,0.213,0.471,0.213,0.75c0,0.349-0.115,0.641-0.35,0.886c-0.221,0.243-0.574,0.398-1.053,0.455
		l0.404,0.251c0.194,0.174,0.354,0.393,0.541,0.654l0.865,1.346h-0.838l-0.652-1.027c-0.175-0.299-0.338-0.519-0.465-0.68
		l-0.327-0.327l-0.304-0.142l-0.354-0.017h-0.77v2.192h-0.674V205.75L209.789,205.75z M210.458,202.984h1.405
		c0.304,0,0.542-0.027,0.7-0.086l0.396-0.297l0.131-0.446l-0.262-0.573c-0.16-0.15-0.43-0.224-0.801-0.224h-1.566v1.626
		 M207.054,203.416c0,2.582,2.11,4.685,4.706,4.685c2.588,0,4.695-2.106,4.695-4.685c0-2.582-2.109-4.695-4.695-4.695
		C209.164,198.721,207.055,200.834,207.054,203.416L207.054,203.416z M207.629,203.416c0-2.277,1.86-4.116,4.131-4.116
		c2.275,0,4.116,1.837,4.116,4.116c0,2.266-1.841,4.118-4.116,4.118C209.49,207.534,207.63,205.679,207.629,203.416"/>
</g>
</svg>
