<svg xmlns="http://www.w3.org/2000/svg" viewBox="0 171.251 612 449.497" enable-background="new 0 171.251 612 449.497"><path d="M306.018 234.64C251.53 137.08-17.132 140.657.862 345.59c15.598 177.763 305.15 275.16 305.15 275.16s290.157-97.34 305.155-275.16c17.646-209.29-250.675-208.507-305.15-110.947z" fill="#B64450"/><g fill="#fff"><path d="M162.327 339.032V322.29c0-7.976-2.254-9.735-6.513-9.735-4.472 0-6.704 1.76-6.704 9.735v19.427c0 11.282 34.693 42.48 34.693 58.402v27.82c0 20.57-14.8 26.512-28.166 26.512-13.196 0-28.032-5.934-28.032-26.513v-8.507l21.504-12.772v19.3c0 7.95 2.23 9.736 6.703 9.736 4.26 0 6.513-1.787 6.513-9.735v-16.593c0-22.105-34.722-40.91-34.722-66.533V320.27c0-20.522 14.835-26.5 28.032-26.5 13.373 0 28.166 5.985 28.166 26.5v5.673l-21.475 13.09M306.844 433.166h17.414l5.892 21.13h-44.845v-160.51h21.54v139.38M479.238 293.785v21.108h-20.565v139.403h-21.51V314.893h-18.85l-2.217-21.108h63.142M394.005 293.785H361.75l-16.447 160.518H364.8l4.65-42.64h15.216l4.04 42.64h21.73l-16.43-160.518zm-22.542 96.74l4.62-58.86h2.635l3.92 58.86h-11.175M228.775 293.785h-22.507v160.518h21.497V313.085c8.746 0 13.196.43 13.196 15.443v38.38c0 5.193-4.563 6.733-9.607 7.13l5.044 19.01c17.237-1.817 26.068-9.912 26.068-32.716v-34.976c0-21.823-9.904-31.57-33.69-31.57M485.165 274.633v-14.807h6.612c1.328 0 2.345.134 3.024.396l1.64 1.392c.403.678.636 1.413.636 2.247 0 1.047-.346 1.923-1.046 2.657-.664.728-1.724 1.194-3.158 1.363l1.215.75c.58.522 1.06 1.18 1.618 1.963l2.593 4.034h-2.508l-1.957-3.08c-.523-.897-1.01-1.554-1.392-2.035l-.98-.982-.912-.424-1.06-.05h-2.303v6.57h-2.02v.007zm2.006-8.287h4.21c.912 0 1.626-.085 2.1-.26l1.186-.89.39-1.336-.785-1.717c-.48-.452-1.285-.67-2.4-.67h-4.692v4.873M476.97 267.64c0 7.735 6.323 14.036 14.1 14.036 7.758 0 14.073-6.31 14.073-14.037 0-7.737-6.323-14.073-14.072-14.073-7.777 0-14.1 6.336-14.1 14.072zm1.724 0c0-6.825 5.574-12.336 12.377-12.336 6.818 0 12.336 5.503 12.336 12.335 0 6.788-5.517 12.34-12.335 12.34-6.802 0-12.376-5.56-12.376-12.34"/></g></svg>